<svg width="20" height="14" viewBox="0 0 20 14" fill="none" xmlns="http://www.w3.org/2000/svg">
<path fill-rule="evenodd" clip-rule="evenodd" d="M1.25 7C1.25 6.83423 1.31585 6.67526 1.43306 6.55805C1.55027 6.44084 1.70924 6.375 1.875 6.375H16.6163L12.6825 2.4425C12.5651 2.32514 12.4992 2.16597 12.4992 2C12.4992 1.83403 12.5651 1.67485 12.6825 1.5575C12.7999 1.44014 12.959 1.37421 13.125 1.37421C13.291 1.37421 13.4501 1.44014 13.5675 1.5575L18.5675 6.55749C18.6257 6.61555 18.6719 6.68452 18.7034 6.76045C18.7349 6.83638 18.7511 6.91779 18.7511 7C18.7511 7.0822 18.7349 7.16361 18.7034 7.23954C18.6719 7.31547 18.6257 7.38444 18.5675 7.44249L13.5675 12.4425C13.4501 12.5599 13.291 12.6258 13.125 12.6258C12.959 12.6258 12.7999 12.5599 12.6825 12.4425C12.5651 12.3251 12.4992 12.166 12.4992 12C12.4992 11.834 12.5651 11.6749 12.6825 11.5575L16.6163 7.625H1.875C1.70924 7.625 1.55027 7.55915 1.43306 7.44194C1.31585 7.32473 1.25 7.16576 1.25 7Z" fill="#C33C54" stroke="#C33C54"/>
</svg>
